HIERARCHY
ROOT SpineBase
{
  OFFSET 0.000000 0.000000 0.000000
  CHANNELS 6 Xposition Yposition Zposition Zrotation Xrotation Yrotation
  JOINT SpineMid
  {
    OFFSET -0.000000 30.134755 0.000000
    CHANNELS 3 Zrotation Xrotation Yrotation
    JOINT SpineShoulder
    {
      OFFSET -0.001394 22.462990 -0.836872
      CHANNELS 3 Zrotation Xrotation Yrotation
      JOINT Neck
      {
        OFFSET 0.005439 7.467238 -0.631475
        CHANNELS 3 Zrotation Xrotation Yrotation
        JOINT Head
        {
          OFFSET -5.306213 12.681633 -1.038450
          CHANNELS 3 Zrotation Xrotation Yrotation
          End Site
          {
            OFFSET 0 0 0
          }
        }
      }
      JOINT ShoulderLeft
      {
        OFFSET -13.927483 -5.007656 10.113497
        CHANNELS 3 Zrotation Xrotation Yrotation
        JOINT ElbowLeft
        {
          OFFSET -0.343229 -19.759005 3.807811
          CHANNELS 3 Zrotation Xrotation Yrotation
          JOINT WristLeft
          {
            OFFSET -4.224268 -11.655622 19.739386
            CHANNELS 3 Zrotation Xrotation Yrotation
            JOINT HandLeft
            {
              OFFSET -1.440956 -3.968005 6.961272
              CHANNELS 3 Zrotation Xrotation Yrotation
              JOINT HandTipLeft
              {
                OFFSET 0.166101 -4.660166 -2.116200
                CHANNELS 3 Zrotation Xrotation Yrotation
                End Site
                {
                  OFFSET 0 0 0
                }
              }
              JOINT ThumbLeft
              {
                OFFSET -1.547985 -1.521451 -0.167529
                CHANNELS 3 Zrotation Xrotation Yrotation
                End Site
                {
                  OFFSET 0 0 0
                }
              }
            }
          }
        }
      }
      JOINT ShoulderRight
      {
        OFFSET 11.181841 -2.075632 -11.181693
        CHANNELS 3 Zrotation Xrotation Yrotation
        JOINT ElbowRight
        {
          OFFSET 5.902901 -22.454333 -4.778286
          CHANNELS 3 Zrotation Xrotation Yrotation
          JOINT WristRight
          {
            OFFSET -0.916020 -21.933685 -3.724022
            CHANNELS 3 Zrotation Xrotation Yrotation
            JOINT HandRight
            {
              OFFSET -1.281041 -7.879132 -0.935964
              CHANNELS 3 Zrotation Xrotation Yrotation
              JOINT HandTipRight
              {
                OFFSET -0.739531 -6.455743 -0.686696
                CHANNELS 3 Zrotation Xrotation Yrotation
                End Site
                {
                  OFFSET 0 0 0
                }
              }
              JOINT ThumbRight
              {
                OFFSET -2.759067 1.253642 0.799255
                CHANNELS 3 Zrotation Xrotation Yrotation
                End Site
                {
                  OFFSET 0 0 0
                }
              }
            }
          }
        }
      }
    }
  }
  JOINT HipLeft
  {
    OFFSET -5.672630 0.339488 1.133335
    CHANNELS 3 Zrotation Xrotation Yrotation
    JOINT KneeLeft
    {
      OFFSET 2.225815 -28.496313 2.786190
      CHANNELS 3 Zrotation Xrotation Yrotation
      JOINT AnkleLeft
      {
        OFFSET 10.061780 -33.224518 10.316993
        CHANNELS 3 Zrotation Xrotation Yrotation
        JOINT FootLeft
        {
          OFFSET -5.843265 -3.603230 -10.711649
          CHANNELS 3 Zrotation Xrotation Yrotation
          End Site
          {
            OFFSET 0 0 0
          }
        }
      }
    }
  }
  JOINT HipRight
  {
    OFFSET 5.998310 1.807328 -7.981390
    CHANNELS 3 Zrotation Xrotation Yrotation
    JOINT KneeRight
    {
      OFFSET 8.802619 -22.936531 -2.285176
      CHANNELS 3 Zrotation Xrotation Yrotation
      JOINT AnkleRight
      {
        OFFSET 7.312819 -35.742309 12.664066
        CHANNELS 3 Zrotation Xrotation Yrotation
        JOINT FootRight
        {
          OFFSET -5.935955 -3.648070 -10.584087
          CHANNELS 3 Zrotation Xrotation Yrotation
          End Site
          {
            OFFSET 0 0 0
          }
        }
      }
    }
  }
}
MOTION
Frames: 13
Frame Time: 0.033333
-19.662128 70.012557 325.219780 3.168499 -0.741110 34.311228 0.245890 0.211555 -34.179238 -0.351709 0.228476 0.119813 9.535056 5.541108 2.299794 0.000000 0.000000 0.000000 -2.899230 0.212512 -0.240039 1.467606 1.081379 2.123377 -1.423356 -7.880749 0.651604 -0.005801 6.855351 -2.795477 0.000000 0.000000 0.000000 0.000000 0.000000 0.000000 3.994816 -1.674338 -2.087933 -2.953210 -2.151964 1.555374 -8.235794 -2.891791 2.286235 10.796410 0.604884 -2.294440 0.000000 0.000000 0.000000 0.000000 0.000000 0.000000 -10.086099 12.948005 -34.063318 -5.131614 -2.572124 -4.891914 38.204751 -27.891189 9.255259 0.000000 0.000000 0.000000 1.958585 -2.588287 -35.518698 -2.824048 1.645004 2.475134 23.215837 -39.472046 11.438028 0.000000 0.000000 0.000000
-21.130196 69.800538 324.958475 3.784486 -0.284594 32.624153 0.246743 0.273232 -32.484177 -0.474115 0.228306 0.134628 8.354936 4.340820 2.119694 0.000000 0.000000 0.000000 -4.335719 -2.184839 -0.464537 2.729600 3.435116 2.585495 -1.530728 -8.363800 0.730631 -0.230256 6.918913 -3.246845 0.000000 0.000000 0.000000 0.000000 0.000000 0.000000 4.899285 -2.449990 -2.385874 -3.331348 -1.833554 1.750740 -8.759466 -1.754996 2.257774 11.537455 -1.272835 -1.896736 0.000000 0.000000 0.000000 0.000000 0.000000 0.000000 -11.353953 12.628334 -32.361799 -4.903539 -2.742972 -4.918471 40.312498 -30.284382 8.163269 0.000000 0.000000 0.000000 1.236265 -3.382135 -34.094074 -2.385345 2.776227 3.126653 13.615970 -30.632443 3.502726 0.000000 0.000000 0.000000
-22.760452 69.592678 324.734632 4.312949 0.261940 30.879004 0.244382 0.319990 -30.741985 -0.535967 0.236157 0.149415 7.522291 2.640144 1.819188 0.000000 0.000000 0.000000 -4.834083 -4.261467 -0.527283 3.014683 5.295205 2.798029 -1.467911 -7.810939 0.703193 -0.586005 6.022409 -3.501940 0.000000 0.000000 0.000000 0.000000 0.000000 0.000000 5.676699 -3.426257 -2.639479 -3.453473 -1.089457 1.883637 -8.414775 -1.806176 2.216350 12.051948 -1.170562 -1.908013 0.000000 0.000000 0.000000 0.000000 0.000000 0.000000 -12.419665 12.222965 -30.640063 -4.536296 -3.413929 -5.063140 37.740957 -27.494727 5.326722 0.000000 0.000000 0.000000 0.551589 -4.480087 -32.663972 -1.941869 4.154145 3.843474 13.621593 -32.841686 1.697967 0.000000 0.000000 0.000000
-24.754726 69.481948 324.705959 4.902795 0.764800 28.828199 0.210298 0.342797 -28.695046 -0.558959 0.235385 0.170182 5.335405 0.709013 1.274412 0.000000 0.000000 0.000000 -4.390593 -6.461072 -0.330987 2.270655 7.667275 2.677510 -1.240051 -6.261396 0.546882 -1.116481 3.807321 -3.495177 0.000000 0.000000 0.000000 0.000000 0.000000 0.000000 5.858092 -4.677433 -2.870661 -3.075422 -0.210884 1.994700 -7.428248 -1.108813 2.024313 12.500736 -0.547131 -1.934218 0.000000 0.000000 0.000000 0.000000 0.000000 0.000000 -12.448253 11.298250 -28.658096 -4.888402 -4.236916 -5.219394 31.423566 -19.933795 1.014688 0.000000 0.000000 0.000000 -0.354598 -4.589156 -30.642082 -0.171624 4.873598 4.360640 11.221148 -32.813108 -2.003762 0.000000 0.000000 0.000000
-26.900574 69.425392 324.938398 5.373299 1.090297 26.623453 0.134774 0.363369 -26.494622 -0.546089 0.235234 0.188290 2.648938 -1.158778 0.535210 0.000000 0.000000 0.000000 -3.226697 -8.399342 0.086880 0.899259 10.000139 2.375011 -0.864480 -3.872552 0.261405 -1.718602 0.715069 -3.281366 0.000000 0.000000 0.000000 0.000000 0.000000 0.000000 5.631944 -6.100462 -3.092774 -1.868181 1.187413 1.951080 -6.229675 -1.514395 1.987041 13.265969 3.986892 -3.179821 0.000000 0.000000 0.000000 0.000000 0.000000 0.000000 -11.544808 10.213836 -26.505524 -5.557093 -5.160755 -5.309346 23.459133 -8.974408 -2.216109 0.000000 0.000000 0.000000 -0.950998 -3.741963 -28.140898 2.208787 4.674098 4.616469 8.251121 -32.145696 -5.975927 0.000000 0.000000 0.000000
-28.974531 69.435279 325.355947 5.835283 1.229676 24.443023 0.072711 0.380316 -24.311749 -0.470438 0.250148 0.212969 -0.090625 -2.692729 -0.251562 0.000000 0.000000 0.000000 -2.988915 -9.622288 0.281179 0.457757 12.142644 2.231243 -0.377974 -0.869074 -0.141109 -2.497359 -3.345973 -3.057819 0.000000 0.000000 0.000000 0.000000 0.000000 0.000000 4.808426 -7.415788 -3.286862 -0.285602 2.454508 1.790868 -6.335340 -0.622762 1.901515 13.245643 3.685417 -2.972970 0.000000 0.000000 0.000000 0.000000 0.000000 0.000000 -10.514190 9.554236 -24.308368 -6.407399 -6.093457 -5.465495 19.187615 -2.388540 -4.437924 0.000000 0.000000 0.000000 -1.552341 -2.046783 -25.411324 5.074140 3.636931 4.731297 -0.620599 -18.995201 -12.079409 0.000000 0.000000 0.000000
-30.869572 69.507418 325.830375 6.470419 1.310392 22.150601 0.015109 0.291479 -22.003485 -0.337983 0.231512 0.255399 -3.454853 -3.761788 -1.083667 0.000000 0.000000 0.000000 -3.326387 -10.165431 0.354137 0.066605 12.628744 2.225941 0.212744 2.567637 -0.654559 -3.056194 -6.695856 -2.793084 0.000000 0.000000 0.000000 0.000000 0.000000 0.000000 3.359797 -8.846988 -3.559741 1.522565 4.261712 1.518563 -6.913381 0.590736 1.750306 13.810663 3.040830 -2.650579 0.000000 0.000000 0.000000 0.000000 0.000000 0.000000 -9.614467 8.778733 -21.986751 -7.102341 -6.699355 -5.417902 15.629457 2.529311 -5.767839 0.000000 0.000000 0.000000 -2.540475 0.188668 -22.402113 8.213295 2.037864 4.832983 -4.585030 -13.459020 -15.639832 0.000000 0.000000 0.000000
-32.533352 69.677297 326.403522 7.025543 1.097420 19.577531 -0.026333 0.223019 -19.399654 -0.132892 0.236667 0.300485 -6.389769 -3.903947 -1.620254 0.000000 0.000000 0.000000 -3.902865 -9.833384 0.333672 -0.278988 11.967929 2.189610 -0.261164 -0.103573 -0.278932 -2.441084 -3.392200 -2.946682 0.000000 0.000000 0.000000 0.000000 0.000000 0.000000 2.086272 -9.873124 -3.860984 2.743594 5.850912 1.318462 -7.572304 2.118685 1.520506 14.492726 1.926598 -2.119869 0.000000 0.000000 0.000000 0.000000 0.000000 0.000000 -8.651223 8.048845 -19.347748 -7.936911 -6.809518 -5.272576 13.498115 5.357284 -7.309069 0.000000 0.000000 0.000000 -3.058026 3.027464 -18.912194 10.738541 -0.346637 4.911570 -6.777207 -11.039996 -18.289715 0.000000 0.000000 0.000000
-34.088862 69.833162 327.000366 7.839645 0.828483 16.811286 -0.025350 0.222445 -16.593385 -0.198886 0.233340 0.332629 -9.609386 -4.019456 -2.180030 0.000000 0.000000 0.000000 -4.956287 -10.461865 0.219169 -0.151448 11.863308 2.327812 -0.260432 -0.054701 -0.302392 -2.254744 -2.430904 -2.987796 0.000000 0.000000 0.000000 0.000000 0.000000 0.000000 1.086562 -10.825840 -4.177054 3.995892 7.709722 0.981402 -9.160124 2.546182 1.589402 16.142558 1.246503 -1.920755 0.000000 0.000000 0.000000 0.000000 0.000000 0.000000 -8.247197 7.628789 -16.497881 -8.451365 -6.879041 -5.073535 12.918425 6.183568 -10.129121 0.000000 0.000000 0.000000 -3.877649 5.746430 -15.278711 12.242107 -2.547482 4.905229 -10.228551 -2.310207 -20.166628 0.000000 0.000000 0.000000
-35.296553 69.990266 327.619795 8.574160 0.375320 13.929639 0.103377 0.169430 -13.649579 -0.213183 0.195546 0.375422 -12.432626 -3.559391 -2.492515 0.000000 0.000000 0.000000 -7.159620 -10.580057 -0.203695 0.879165 11.309813 2.498357 -0.252794 0.000012 -0.320113 -1.245549 -1.534260 -3.249984 0.000000 0.000000 0.000000 0.000000 0.000000 0.000000 0.179122 -11.505750 -4.536529 4.630387 9.198247 0.837589 -9.451781 3.821426 1.332657 14.954147 1.666962 -1.611727 0.000000 0.000000 0.000000 0.000000 0.000000 0.000000 -8.092493 7.534640 -13.514042 -8.799322 -6.854294 -4.874959 14.018777 4.486344 -13.982683 0.000000 0.000000 0.000000 -4.637733 8.232226 -11.614966 12.990417 -4.402701 4.846952 -10.834156 0.223914 -22.710375 0.000000 0.000000 0.000000
-36.087539 70.048528 328.195444 9.332557 -0.171999 11.022789 0.179757 0.113810 -10.666829 -0.164939 0.166480 0.422313 -14.774112 -2.365943 -2.393757 0.000000 0.000000 0.000000 -10.156814 -10.430282 -0.818086 2.642152 10.691226 2.697949 -0.242636 0.052450 -0.332731 -0.907118 -0.477418 -3.197048 0.000000 0.000000 0.000000 0.000000 0.000000 0.000000 -0.530928 -11.840478 -4.877577 5.245672 10.460966 0.635841 -9.936381 4.682258 1.181133 15.067643 0.547121 -1.070788 0.000000 0.000000 0.000000 0.000000 0.000000 0.000000 -8.177839 7.635924 -10.493956 -9.237686 -6.702005 -4.732352 14.343394 4.449648 -16.991834 0.000000 0.000000 0.000000 -5.194884 10.214398 -8.136163 12.634441 -5.754216 4.638420 -9.923704 -0.112307 -25.558092 0.000000 0.000000 0.000000
-36.740966 70.069632 328.680857 10.252216 -0.629539 8.046820 0.279735 0.074670 -7.609252 -0.160067 0.136728 0.473924 -17.267042 -1.619559 -2.442332 0.000000 0.000000 0.000000 -12.922324 -10.364997 -1.316586 4.040488 10.111382 2.805997 -0.230347 0.104166 -0.341955 -0.562905 0.550408 -3.113345 0.000000 0.000000 0.000000 0.000000 0.000000 0.000000 -1.534322 -12.504037 -5.247100 6.197518 12.045183 0.285141 -9.427635 5.038355 0.950270 14.368215 -0.718257 -0.478632 0.000000 0.000000 0.000000 0.000000 0.000000 0.000000 -8.753623 7.711571 -7.415873 -9.517786 -6.688930 -4.654218 14.786291 4.499429 -19.916183 0.000000 0.000000 0.000000 -6.239742 11.391803 -4.799252 12.213719 -6.147624 4.490967 -10.088390 2.431370 -27.174632 0.000000 0.000000 0.000000
-37.109893 70.051209 329.065565 10.994892 -1.059594 5.241779 0.338718 0.070088 -4.729633 -0.162713 0.124662 0.513160 -18.845564 -0.753274 -2.286410 0.000000 0.000000 0.000000 -14.946934 -9.665203 -1.636548 5.127807 9.494152 2.926307 -0.225518 0.126637 -0.346354 -0.424560 0.956710 -3.083394 0.000000 0.000000 0.000000 0.000000 0.000000 0.000000 -2.087624 -13.122796 -5.584241 6.531040 13.331357 0.145789 -8.174851 4.728907 0.784800 13.661231 -0.948259 -0.343750 0.000000 0.000000 0.000000 0.000000 0.000000 0.000000 -9.407547 7.795831 -4.518174 -9.822607 -6.748339 -4.680973 15.396572 4.531396 -22.366785 0.000000 0.000000 0.000000 -6.767266 11.615177 -2.007934 10.997573 -5.578950 4.296797 -8.015293 -0.756741 -30.472689 0.000000 0.000000 0.000000
